<svg width="1960" height="1328" viewBox="0 0 1960 1328" fill="none" xmlns="http://www.w3.org/2000/svg">
<g clip-path="url(#clip0_152_174)">
<path d="M1960 464.099H1563.86V0H0V475.956H0.500809V855.384V1328H1880.87V879.6H1960V464.099Z" fill="#111111"/>
<path d="M394.972 290.918L255.747 78.1572H317.847L421.514 243.99L525.683 78.1572H586.281L447.056 291.085V443.391H394.972V291.085V290.918Z" fill="white"/>
<path d="M536.2 302.942C536.2 214.264 589.285 156.147 670.917 156.147C752.549 156.147 804.633 214.264 804.633 302.441C804.633 390.618 752.048 448.233 670.917 448.233C589.786 448.233 536.2 390.117 536.2 302.942ZM753.05 301.94C753.05 237.31 722.501 200.235 670.917 200.235C619.334 200.235 587.783 238.813 587.783 302.441C587.783 366.069 618.332 404.145 670.417 404.145C722.501 404.145 753.05 366.068 753.05 301.94Z" fill="white"/>
<path d="M835.684 352.041V161.157H887.267V347.531C887.267 382.602 910.304 402.141 945.862 402.141C990.434 402.141 1020.48 373.584 1020.48 331.499V161.157H1072.07V443.224H1024.49L1021.98 400.638C1004.46 430.197 971.403 448.234 935.345 448.234C870.74 448.234 835.684 410.157 835.684 352.041Z" fill="white"/>
<path d="M1131.66 399.135V201.238H1094.1V161.157H1131.66V82.4993L1181.74 77.4893V161.157H1227.32V201.238H1181.74V378.093C1181.74 398.634 1186.75 403.644 1205.28 403.644C1215.3 403.644 1221.81 403.143 1227.32 401.64V442.723C1212.29 445.729 1199.77 446.731 1189.25 446.731C1151.69 446.731 1131.66 430.198 1131.66 399.135Z" fill="white"/>
<path d="M1249.35 47.5957H1300.94V200.904C1324.47 169.841 1353.52 155.312 1391.58 155.312C1448.17 155.312 1488.74 187.376 1488.74 254.01V443.39H1437.66V259.02C1437.66 223.95 1417.62 201.405 1377.06 201.405C1336.49 201.405 1300.94 228.96 1300.94 275.052V443.39H1249.35V47.5957Z" fill="white"/>
<path d="M422.015 518.041C374.939 518.041 349.398 539.584 349.398 571.147C349.398 610.727 385.456 622.751 446.054 635.276C505.65 647.3 563.744 668.343 563.744 740.988C563.744 806.119 513.663 849.206 424.519 849.206C335.375 849.206 284.793 801.109 283.291 729.465L334.874 723.453C336.878 776.059 370.933 805.117 426.022 805.117C475.101 805.117 508.154 788.083 508.154 743.994C508.154 699.906 468.09 690.888 421.514 680.868C336.377 662.33 294.81 635.276 294.81 574.654C294.81 514.033 345.391 473.952 422.015 473.952C505.65 473.952 554.73 517.039 557.734 583.171L505.65 589.184C503.146 543.592 472.096 518.041 422.015 518.041Z" fill="white"/>
<path d="M609.318 799.94V602.042H571.757V561.962H609.318V483.304L659.399 478.294V561.962H704.972V602.042H659.399V778.898C659.399 799.439 664.407 804.449 682.937 804.449C692.953 804.449 699.463 803.948 704.972 802.445V843.527C689.948 846.533 677.428 847.535 666.911 847.535C629.35 847.535 609.318 831.002 609.318 799.94Z" fill="white"/>
<path d="M712.484 770.381C712.484 714.268 755.053 692.224 803.131 683.206L862.226 672.184C892.275 666.673 898.785 656.151 898.785 638.115C898.785 614.568 884.763 597.033 840.692 597.033C796.62 597.033 770.578 613.566 771.079 648.135L722.501 643.125C723.502 588.015 770.578 556.952 840.692 556.952C910.805 556.952 949.868 585.009 949.868 642.123V784.409C949.868 804.449 958.382 808.457 967.396 808.457C972.905 808.457 974.908 807.956 975.91 807.455H978.915V844.029C971.903 847.035 958.882 848.037 953.374 848.037C924.827 848.037 905.296 834.51 905.296 805.451V796.433C891.273 827.996 851.208 849.039 805.134 849.039C746.039 849.039 712.484 816.974 712.484 770.381ZM899.286 759.359V700.741C891.774 704.749 878.753 707.254 858.721 711.763L817.153 720.28C775.086 728.797 765.069 747.334 765.069 766.373C765.069 794.93 787.606 807.956 818.155 807.956C858.22 807.956 889.27 789.92 899.286 759.359Z" fill="white"/>
<path d="M997.445 562.129H1043.52L1046.52 603.713C1061.05 575.155 1084.59 559.123 1114.63 559.123C1124.65 559.123 1132.66 560.125 1137.67 562.129V610.727H1134.17C1128.66 608.723 1121.14 607.721 1114.63 607.721C1076.57 607.721 1052.53 632.771 1049.03 672.35V844.196H997.445V562.129Z" fill="white"/>
<path d="M1195.26 799.94V602.042H1157.7V561.962H1195.26V483.304L1245.35 478.294V561.962H1290.92V602.042H1245.35V778.898C1245.35 799.439 1250.35 804.449 1268.88 804.449C1278.9 804.449 1285.41 803.948 1290.92 802.445V843.527C1275.89 846.533 1263.37 847.535 1252.86 847.535C1215.3 847.535 1195.26 831.002 1195.26 799.94Z" fill="white"/>
<path d="M1336.49 752.845V561.962H1388.08V748.336C1388.08 783.407 1411.11 802.946 1446.67 802.946C1491.24 802.946 1521.29 774.388 1521.29 732.304V561.962H1572.87V844.028H1525.3L1522.79 801.443C1505.27 831.002 1472.21 849.038 1436.15 849.038C1371.55 849.038 1336.49 810.962 1336.49 752.845Z" fill="white"/>
<path d="M1618.95 562.129H1666.03L1669.53 610.226C1685.56 576.658 1720.61 557.119 1763.68 557.119C1838.3 557.119 1884.88 612.731 1884.88 700.908C1884.88 789.085 1836.8 849.206 1762.68 849.206C1722.62 849.206 1688.56 832.171 1670.03 798.103V927.864H1618.95V562.129ZM1752.16 804.449C1803.75 804.449 1832.29 767.375 1832.29 700.741C1832.29 634.107 1803.25 601.041 1752.67 601.041C1702.08 601.041 1670.03 634.608 1670.03 686.713V716.773C1670.03 770.381 1702.08 804.449 1752.16 804.449Z" fill="white"/>
<path d="M304.826 879.6H561.24V925.692H356.91V1039.92H537.702V1085.01H356.91V1244.83H304.826V879.6Z" fill="white"/>
<path d="M557.234 1104.55C557.234 1015.87 610.319 957.757 691.951 957.757C773.583 957.757 825.667 1015.87 825.667 1104.05C825.667 1192.23 773.082 1249.84 691.951 1249.84C610.82 1249.84 557.234 1191.73 557.234 1104.55ZM774.084 1103.55C774.084 1038.92 743.535 1001.85 691.951 1001.85C640.368 1001.85 608.817 1040.42 608.817 1104.05C608.817 1167.68 639.366 1205.75 691.45 1205.75C743.535 1205.75 774.084 1167.68 774.084 1103.55Z" fill="white"/>
<path d="M856.718 962.767H902.792L905.797 1004.35C920.32 975.793 943.858 959.761 973.907 959.761C983.923 959.761 991.936 960.763 996.944 962.767V1011.36H993.438C987.929 1009.36 980.417 1008.36 973.907 1008.36C935.845 1008.36 911.807 1033.41 908.301 1072.99V1244.83H856.718V962.767Z" fill="white"/>
<path d="M1014.97 1153.65V962.767H1066.56V1149.14C1066.56 1184.21 1089.59 1203.75 1125.15 1203.75C1169.72 1203.75 1199.77 1175.19 1199.77 1133.11V962.767H1251.36V1244.83H1203.78L1201.27 1202.25C1183.75 1231.81 1150.69 1249.84 1114.63 1249.84C1050.03 1249.84 1014.97 1211.77 1014.97 1153.65Z" fill="white"/>
<path d="M1297.43 962.767H1344L1347.51 1007.86C1366.04 973.789 1398.09 957.757 1432.65 957.757C1471.21 957.757 1503.26 977.296 1517.28 1015.37C1534.31 978.298 1569.87 957.757 1609.43 957.757C1669.53 957.757 1702.58 995.833 1702.58 1053.95V1244.83H1651V1062.47C1651 1025.39 1632.47 1003.85 1597.92 1003.85C1555.35 1003.85 1525.3 1033.91 1525.3 1083.01V1244.83H1474.22V1066.98C1474.22 1029.4 1457.69 1003.85 1420.13 1003.85C1377.56 1003.85 1349.01 1036.41 1349.01 1080.5V1244.83H1297.43V962.767Z" fill="white"/>
<path d="M1753.17 1187.72H1805.75V1244.83H1753.17V1187.72Z" fill="#5FC7F0"/>
</g>
<defs>
<clipPath id="clip0_152_174">
<rect width="1960" height="1328" fill="white"/>
</clipPath>
</defs>
</svg>
