<svg width="76" height="32" viewBox="0 0 76 32" fill="none" xmlns="http://www.w3.org/2000/svg">
<g clip-path="url(#clip0_114_174)">
<path d="M75.94 0H0V31.52H75.94V0Z" fill="#111111"/>
<path d="M23.6599 17.57L15.3199 4.81998H19.0399L25.2499 14.75L31.4899 4.81998H35.1199L26.7799 17.57V26.69H23.6599V17.57Z" fill="white"/>
<path d="M42.44 7.15999C39.62 7.15999 38.09 8.44999 38.09 10.34C38.09 12.71 40.25 13.43 43.88 14.18C47.45 14.9 50.93 16.16 50.93 20.51C50.93 24.41 47.93 26.99 42.59 26.99C37.25 26.99 34.22 24.11 34.13 19.82L37.22 19.46C37.34 22.61 39.38 24.35 42.68 24.35C45.62 24.35 47.6 23.33 47.6 20.69C47.6 18.05 45.2 17.51 42.41 16.91C37.31 15.8 34.82 14.18 34.82 10.55C34.82 6.91999 37.85 4.51999 42.44 4.51999C47.45 4.51999 50.39 7.09999 50.57 11.06L47.45 11.42C47.3 8.68999 45.44 7.15999 42.44 7.15999Z" fill="white"/>
<path d="M53.2999 4.81998H68.6599V7.57998H56.4199V14.42H67.2499V17.12H56.4199V26.69H53.2999V4.81998Z" fill="white"/>
<path d="M67.8199 23.27H70.9699V26.69H67.8199V23.27Z" fill="#63BFE4"/>
</g>
<defs>
<clipPath id="clip0_114_174">
<rect width="75.94" height="31.52" fill="white"/>
</clipPath>
</defs>
</svg>
