<svg width="24" height="25" viewBox="0 0 24 25" fill="none" xmlns="http://www.w3.org/2000/svg">
<g clip-path="url(#clip0_32_73)">
<path d="M12 2.92301C15.204 2.92301 15.584 2.93501 16.85 2.99301C20.102 3.14101 21.621 4.68401 21.769 7.91201C21.827 9.17701 21.838 9.55701 21.838 12.761C21.838 15.966 21.826 16.345 21.769 17.61C21.62 20.835 20.105 22.381 16.85 22.529C15.584 22.587 15.206 22.599 12 22.599C8.796 22.599 8.416 22.587 7.151 22.529C3.891 22.38 2.38 20.83 2.232 17.609C2.174 16.344 2.162 15.965 2.162 12.76C2.162 9.55601 2.175 9.17701 2.232 7.91101C2.381 4.68401 3.896 3.14001 7.151 2.99201C8.417 2.93501 8.796 2.92301 12 2.92301ZM12 0.76001C8.741 0.76001 8.333 0.77401 7.053 0.83201C2.695 1.03201 0.273 3.45001 0.073 7.81201C0.014 9.09301 0 9.50101 0 12.76C0 16.019 0.014 16.428 0.072 17.708C0.272 22.066 2.69 24.488 7.052 24.688C8.333 24.746 8.741 24.76 12 24.76C15.259 24.76 15.668 24.746 16.948 24.688C21.302 24.488 23.73 22.07 23.927 17.708C23.986 16.428 24 16.019 24 12.76C24 9.50101 23.986 9.09301 23.928 7.81301C23.732 3.45901 21.311 1.03301 16.949 0.83301C15.668 0.77401 15.259 0.76001 12 0.76001ZM12 6.59801C8.597 6.59801 5.838 9.35701 5.838 12.76C5.838 16.163 8.597 18.923 12 18.923C15.403 18.923 18.162 16.164 18.162 12.76C18.162 9.35701 15.403 6.59801 12 6.59801ZM12 16.76C9.791 16.76 8 14.97 8 12.76C8 10.551 9.791 8.76001 12 8.76001C14.209 8.76001 16 10.551 16 12.76C16 14.97 14.209 16.76 12 16.76ZM18.406 4.91501C17.61 4.91501 16.965 5.56001 16.965 6.35501C16.965 7.15001 17.61 7.79501 18.406 7.79501C19.201 7.79501 19.845 7.15001 19.845 6.35501C19.845 5.56001 19.201 4.91501 18.406 4.91501Z" fill="black" fill-opacity="0.45"/>
</g>
<defs>
<clipPath id="clip0_32_73">
<rect width="24" height="24" fill="white" transform="translate(0 0.76001)"/>
</clipPath>
</defs>
</svg>
