<svg width="24" height="25" viewBox="0 0 24 25" fill="none" xmlns="http://www.w3.org/2000/svg">
<g clip-path="url(#clip0_32_75)">
<path fill-rule="evenodd" clip-rule="evenodd" d="M24 3.76001C24 2.10424 22.6558 0.76001 21 0.76001H3C1.34423 0.76001 0 2.10424 0 3.76001V21.76C0 23.4158 1.34423 24.76 3 24.76H21C22.6558 24.76 24 23.4158 24 21.76V3.76001Z" fill="black" fill-opacity="0.45"/>
<path d="M6.88157 9.13403H2.86157V21.226H6.88157V9.13403Z" fill="white"/>
<path d="M4.899 3.30396C3.52364 3.30396 2.625 4.20817 2.625 5.39331C2.625 6.55356 3.49631 7.48272 4.8458 7.48272H4.87177C6.27347 7.48272 7.14595 6.55356 7.14595 5.39331C7.11994 4.20817 6.27356 3.30396 4.899 3.30396Z" fill="white"/>
<path d="M16.7475 8.84985C14.6151 8.84985 13.66 10.0225 13.1252 10.8462V9.1342H9.1062C9.1595 10.2684 9.1062 21.2261 9.1062 21.2261H13.1251V14.4731C13.1251 14.1117 13.1511 13.7503 13.2576 13.492C13.5477 12.7701 14.2094 12.0224 15.3198 12.0224C16.7735 12.0224 17.3559 13.1316 17.3559 14.7564V21.2261H21.375V14.2919C21.375 10.5777 19.3919 8.84985 16.7475 8.84985Z" fill="white"/>
</g>
<defs>
<clipPath id="clip0_32_75">
<rect width="24" height="24" fill="white" transform="translate(0 0.76001)"/>
</clipPath>
</defs>
</svg>
